<svg width="94" height="20" viewBox="0 0 94 20" fill="none" xmlns="http://www.w3.org/2000/svg">
<path fill-rule="evenodd" clip-rule="evenodd" d="M4.688 6.0879V15.6639C4.688 16.1279 4.692 16.5519 4.7 16.9359C4.708 17.3199 4.712 17.5679 4.712 17.6799C4.952 17.6959 5.24 17.7119 5.576 17.7279C5.912 17.7439 6.328 17.7519 6.824 17.7519C8.63201 17.7519 10.064 17.1359 11.12 15.9039C12.176 14.6719 12.704 12.8079 12.704 10.3119C12.704 9.3199 12.572 8.43191 12.308 7.6479C12.044 6.8639 11.672 6.19591 11.192 5.6439C10.712 5.0919 10.136 4.66791 9.464 4.3719C8.792 4.0759 8.04 3.9279 7.208 3.9279C6.632 3.9279 6.164 3.9399 5.804 3.9639C5.444 3.9879 5.08 4.0159 4.712 4.0479C4.712 4.1599 4.708 4.4079 4.7 4.7919C4.692 5.17591 4.688 5.6079 4.688 6.0879ZM1.136 9.2079C1.136 7.8799 1.12 6.69991 1.088 5.6679C1.056 4.6359 1.008 3.59991 0.944 2.5599C1.216 2.5919 1.512 2.6199 1.832 2.6439C2.152 2.6679 2.512 2.6799 2.912 2.6799C3.44 2.6799 4.032 2.6599 4.688 2.6199C5.344 2.5799 6.2 2.5599 7.256 2.5599C8.63201 2.5599 9.88399 2.6839 11.012 2.9319C12.14 3.17991 13.112 3.5999 13.928 4.1919C14.744 4.78391 15.376 5.5799 15.824 6.5799C16.272 7.57991 16.496 8.8399 16.496 10.3599C16.496 11.6879 16.276 12.8879 15.836 13.9599C15.396 15.0319 14.796 15.9479 14.036 16.7079C13.276 17.4679 12.396 18.0479 11.396 18.4479C10.396 18.8479 9.32801 19.0479 8.192 19.0479C6.99199 19.0479 5.968 19.0399 5.12 19.0239C4.272 19.0079 3.536 18.9999 2.912 18.9999H1.832C1.512 18.9999 1.216 19.0159 0.944 19.0479C1.008 18.0559 1.056 17.0439 1.088 16.0119C1.12 14.9799 1.136 13.7999 1.136 12.4719V9.2079ZM19.212 2.9679C19.212 2.4399 19.396 1.99191 19.764 1.6239C20.132 1.2559 20.58 1.0719 21.108 1.0719C21.636 1.0719 22.084 1.2559 22.452 1.6239C22.82 1.99191 23.004 2.4399 23.004 2.9679C23.004 3.49591 22.82 3.9439 22.452 4.3119C22.084 4.67991 21.636 4.8639 21.108 4.8639C20.58 4.8639 20.132 4.67991 19.764 4.3119C19.396 3.9439 19.212 3.49591 19.212 2.9679ZM19.5 12.8319C19.5 11.8559 19.488 10.9399 19.464 10.0839C19.44 9.2279 19.388 8.36791 19.308 7.5039C19.532 7.5359 19.796 7.5639 20.1 7.5879C20.404 7.6119 20.74 7.6239 21.108 7.6239C21.86 7.6239 22.46 7.5839 22.908 7.5039C22.828 8.36791 22.776 9.2279 22.752 10.0839C22.728 10.9399 22.716 11.8559 22.716 12.8319V13.7919C22.716 14.7679 22.728 15.6879 22.752 16.5519C22.776 17.4159 22.828 18.2479 22.908 19.0479C22.7 19.0159 22.44 18.9999 22.128 18.9999H20.1C19.796 18.9999 19.532 19.0159 19.308 19.0479C19.388 18.2479 19.44 17.4159 19.464 16.5519C19.488 15.6879 19.5 14.7679 19.5 13.7919V12.8319ZM31.624 15.3999C31.624 14.7119 31.628 14.1879 31.636 13.8279C31.644 13.4679 31.648 13.1519 31.648 12.8799C31.312 13.0719 30.956 13.2279 30.58 13.3479C30.204 13.4679 29.86 13.6199 29.548 13.8039C29.236 13.9879 28.98 14.2399 28.78 14.5599C28.58 14.8799 28.48 15.3439 28.48 15.9519C28.48 16.5439 28.604 16.9959 28.852 17.3079C29.1 17.6199 29.432 17.7759 29.848 17.7759C30.376 17.7759 30.804 17.5759 31.132 17.1759C31.46 16.7759 31.624 16.1839 31.624 15.3999ZM25.936 8.8719C26.608 8.3279 27.332 7.91191 28.108 7.6239C28.884 7.3359 29.656 7.1919 30.424 7.1919C31.064 7.1919 31.652 7.2639 32.188 7.4079C32.724 7.5519 33.188 7.7799 33.58 8.0919C33.972 8.40391 34.276 8.8079 34.492 9.3039C34.708 9.79991 34.816 10.3999 34.816 11.1039C34.816 12.1279 34.804 13.0759 34.78 13.9479C34.756 14.8199 34.744 15.6879 34.744 16.5519C34.744 16.9359 34.772 17.2359 34.828 17.4519C34.884 17.6679 34.968 17.8319 35.08 17.9439C35.192 18.0559 35.34 18.1279 35.524 18.1599C35.708 18.1919 35.92 18.2079 36.16 18.2079V18.7839C35.696 18.9759 35.304 19.1199 34.984 19.2159C34.664 19.3119 34.32 19.3599 33.952 19.3599C33.36 19.3599 32.88 19.2159 32.512 18.9279C32.144 18.6399 31.864 18.2239 31.672 17.6799C31.304 18.1919 30.876 18.5999 30.388 18.9039C29.9 19.2079 29.288 19.3599 28.552 19.3599C27.944 19.3599 27.424 19.2799 26.992 19.1199C26.56 18.9599 26.204 18.7319 25.924 18.4359C25.644 18.1399 25.44 17.8039 25.312 17.4279C25.184 17.0519 25.12 16.6719 25.12 16.2879C25.12 15.7599 25.204 15.3039 25.372 14.9199C25.54 14.5359 25.78 14.2079 26.092 13.9359C26.404 13.6639 26.776 13.4359 27.208 13.2519C27.64 13.0679 28.128 12.9119 28.672 12.7839C29.344 12.6239 29.876 12.4839 30.268 12.3639C30.66 12.2439 30.952 12.1239 31.144 12.0039C31.336 11.8839 31.46 11.7519 31.516 11.6079C31.572 11.4639 31.6 11.2879 31.6 11.0799C31.6 10.5039 31.396 10.0119 30.988 9.6039C30.58 9.1959 30.016 8.9919 29.296 8.9919C29.024 8.9919 28.744 9.0279 28.456 9.0999C28.168 9.1719 27.892 9.2719 27.628 9.3999C27.364 9.5279 27.124 9.6679 26.908 9.8199C26.692 9.9719 26.528 10.1359 26.416 10.3119H26.248L25.936 8.8719ZM40.988 13.5519C40.988 14.3679 41.044 15.0559 41.156 15.6159C41.268 16.1759 41.42 16.6279 41.612 16.9719C41.804 17.3159 42.024 17.5639 42.272 17.7159C42.52 17.8679 42.78 17.9439 43.052 17.9439C43.708 17.9439 44.248 17.5719 44.672 16.8279C45.096 16.0839 45.308 14.8479 45.308 13.1199C45.308 11.6319 45.108 10.5479 44.708 9.8679C44.308 9.1879 43.796 8.8479 43.172 8.8479C42.916 8.8479 42.66 8.9199 42.404 9.0639C42.148 9.2079 41.916 9.4599 41.708 9.8199C41.5 10.1799 41.328 10.6639 41.192 11.2719C41.056 11.8799 40.988 12.6399 40.988 13.5519ZM48.524 10.8159C48.524 12.3839 48.54 13.8239 48.572 15.1359C48.604 16.4479 48.652 17.7519 48.716 19.0479C48.508 19.0159 48.244 18.9999 47.924 18.9999H45.992C45.696 18.9999 45.468 19.0159 45.308 19.0479C45.324 19.0159 45.34 18.9119 45.356 18.7359C45.372 18.5599 45.392 18.3599 45.416 18.1359C45.44 17.9119 45.46 17.7039 45.476 17.5119C45.492 17.3199 45.5 17.1999 45.5 17.1519L45.452 17.1039C45.148 17.8239 44.732 18.3799 44.204 18.7719C43.676 19.1639 42.948 19.3599 42.02 19.3599C41.204 19.3599 40.508 19.2039 39.932 18.8919C39.356 18.5799 38.884 18.1439 38.516 17.5839C38.148 17.0239 37.876 16.3679 37.7 15.6159C37.524 14.8639 37.436 14.0559 37.436 13.1919C37.436 12.3279 37.556 11.5319 37.796 10.8039C38.036 10.0759 38.364 9.44391 38.78 8.9079C39.196 8.3719 39.688 7.95191 40.256 7.6479C40.824 7.3439 41.428 7.1919 42.068 7.1919C42.788 7.1919 43.432 7.3599 44 7.6959C44.568 8.03191 44.988 8.4559 45.26 8.9679H45.308C45.308 7.5279 45.292 6.17191 45.26 4.8999C45.228 3.6279 45.18 2.31191 45.116 0.951904C45.324 0.983904 45.588 1.0119 45.908 1.0359C46.228 1.0599 46.564 1.0719 46.916 1.0719C47.268 1.0719 47.604 1.0599 47.924 1.0359C48.244 1.0119 48.508 0.983904 48.716 0.951904C48.652 2.29591 48.604 3.6239 48.572 4.9359C48.54 6.24791 48.524 7.6879 48.524 9.2559V10.8159ZM54.432 13.3119C54.432 13.9519 54.496 14.5519 54.624 15.1119C54.752 15.6719 54.948 16.1559 55.212 16.5639C55.476 16.9719 55.812 17.2919 56.22 17.5239C56.628 17.7559 57.104 17.8719 57.648 17.8719C58.752 17.8719 59.736 17.5119 60.6 16.7919L60.888 17.0079L60.36 18.3519C59.96 18.6559 59.48 18.8999 58.92 19.0839C58.36 19.2679 57.624 19.3599 56.712 19.3599C55.928 19.3599 55.184 19.2519 54.48 19.0359C53.776 18.8199 53.156 18.4639 52.62 17.9679C52.084 17.4719 51.66 16.8439 51.348 16.0839C51.036 15.3239 50.88 14.4159 50.88 13.3599C50.88 12.3199 51.02 11.4159 51.3 10.6479C51.58 9.8799 51.968 9.23991 52.464 8.7279C52.96 8.2159 53.548 7.83191 54.228 7.5759C54.908 7.3199 55.648 7.1919 56.448 7.1919C58.032 7.1919 59.244 7.6559 60.084 8.5839C60.924 9.51191 61.344 10.8239 61.344 12.5199V13.0239C61.344 13.1679 61.336 13.2639 61.32 13.3119H54.432ZM58.128 12.2319C58.096 11.0319 57.948 10.0719 57.684 9.3519C57.42 8.6319 56.976 8.2719 56.352 8.2719C56 8.2719 55.704 8.3919 55.464 8.6319C55.224 8.87191 55.032 9.1799 54.888 9.5559C54.744 9.93191 54.636 10.3559 54.564 10.8279C54.492 11.2999 54.448 11.7679 54.432 12.2319H58.128ZM66.796 9.3039C67.244 8.6319 67.768 8.11191 68.368 7.7439C68.968 7.3759 69.652 7.1919 70.42 7.1919C71.14 7.1919 71.76 7.3879 72.28 7.7799C72.8 8.17191 73.204 8.7359 73.492 9.4719C73.972 8.7359 74.532 8.17191 75.172 7.7799C75.812 7.3879 76.492 7.1919 77.212 7.1919C78.412 7.1919 79.336 7.5399 79.984 8.2359C80.632 8.93191 80.956 10.0559 80.956 11.6079C80.956 12.4239 80.94 13.1439 80.908 13.7679C80.876 14.3919 80.86 15.0159 80.86 15.6399C80.86 16.1519 80.872 16.7079 80.896 17.3079C80.92 17.9079 80.948 18.4879 80.98 19.0479C80.772 19.0159 80.508 18.9999 80.188 18.9999H78.172C77.852 18.9999 77.588 19.0159 77.38 19.0479C77.492 18.2159 77.564 17.2359 77.596 16.1079C77.628 14.9799 77.644 13.6879 77.644 12.2319C77.644 11.2239 77.476 10.4839 77.14 10.0119C76.804 9.5399 76.332 9.3039 75.724 9.3039C75.34 9.3039 75.024 9.3919 74.776 9.5679C74.528 9.74391 74.332 9.9719 74.188 10.2519C74.044 10.5319 73.948 10.8319 73.9 11.1519C73.852 11.4719 73.828 11.7759 73.828 12.0639V13.7919C73.828 14.7679 73.84 15.6879 73.864 16.5519C73.888 17.4159 73.94 18.2479 74.02 19.0479C73.812 19.0159 73.552 18.9999 73.24 18.9999H71.212C70.908 18.9999 70.644 19.0159 70.42 19.0479C70.5 18.2479 70.552 17.4159 70.576 16.5519C70.6 15.6879 70.612 14.7679 70.612 13.7919V12.3279C70.612 11.3679 70.492 10.6239 70.252 10.0959C70.012 9.5679 69.556 9.3039 68.884 9.3039C68.164 9.3039 67.636 9.6159 67.3 10.2399C66.964 10.8639 66.796 11.7279 66.796 12.8319V13.7919C66.796 14.7679 66.808 15.6879 66.832 16.5519C66.856 17.4159 66.908 18.2479 66.988 19.0479C66.78 19.0159 66.52 18.9999 66.208 18.9999H64.18C63.876 18.9999 63.612 19.0159 63.388 19.0479C63.468 18.2479 63.52 17.4159 63.544 16.5519C63.568 15.6879 63.58 14.7679 63.58 13.7919V12.8319C63.58 11.8559 63.568 10.9399 63.544 10.0839C63.52 9.2279 63.468 8.36791 63.388 7.5039C63.676 7.5359 63.96 7.5639 64.24 7.5879C64.52 7.6119 64.804 7.6239 65.092 7.6239C65.38 7.6239 65.664 7.6119 65.944 7.5879C66.224 7.5639 66.524 7.5359 66.844 7.5039L66.748 9.3039H66.796ZM89.36 15.3999C89.36 14.7119 89.364 14.1879 89.372 13.8279C89.38 13.4679 89.384 13.1519 89.384 12.8799C89.048 13.0719 88.692 13.2279 88.316 13.3479C87.94 13.4679 87.596 13.6199 87.284 13.8039C86.972 13.9879 86.716 14.2399 86.516 14.5599C86.316 14.8799 86.216 15.3439 86.216 15.9519C86.216 16.5439 86.34 16.9959 86.588 17.3079C86.836 17.6199 87.168 17.7759 87.584 17.7759C88.112 17.7759 88.54 17.5759 88.868 17.1759C89.196 16.7759 89.36 16.1839 89.36 15.3999ZM83.672 8.8719C84.344 8.3279 85.068 7.91191 85.844 7.6239C86.62 7.3359 87.392 7.1919 88.16 7.1919C88.8 7.1919 89.388 7.2639 89.924 7.4079C90.46 7.5519 90.924 7.7799 91.316 8.0919C91.708 8.40391 92.012 8.8079 92.228 9.3039C92.444 9.79991 92.552 10.3999 92.552 11.1039C92.552 12.1279 92.54 13.0759 92.516 13.9479C92.492 14.8199 92.48 15.6879 92.48 16.5519C92.48 16.9359 92.508 17.2359 92.564 17.4519C92.62 17.6679 92.704 17.8319 92.816 17.9439C92.928 18.0559 93.076 18.1279 93.26 18.1599C93.444 18.1919 93.656 18.2079 93.896 18.2079V18.7839C93.432 18.9759 93.04 19.1199 92.72 19.2159C92.4 19.3119 92.056 19.3599 91.688 19.3599C91.096 19.3599 90.616 19.2159 90.248 18.9279C89.88 18.6399 89.6 18.2239 89.408 17.6799C89.04 18.1919 88.612 18.5999 88.124 18.9039C87.636 19.2079 87.024 19.3599 86.288 19.3599C85.68 19.3599 85.16 19.2799 84.728 19.1199C84.296 18.9599 83.94 18.7319 83.66 18.4359C83.38 18.1399 83.176 17.8039 83.048 17.4279C82.92 17.0519 82.856 16.6719 82.856 16.2879C82.856 15.7599 82.94 15.3039 83.108 14.9199C83.276 14.5359 83.516 14.2079 83.828 13.9359C84.14 13.6639 84.512 13.4359 84.944 13.2519C85.376 13.0679 85.864 12.9119 86.408 12.7839C87.08 12.6239 87.612 12.4839 88.004 12.3639C88.396 12.2439 88.688 12.1239 88.88 12.0039C89.072 11.8839 89.196 11.7519 89.252 11.6079C89.308 11.4639 89.336 11.2879 89.336 11.0799C89.336 10.5039 89.132 10.0119 88.724 9.6039C88.316 9.1959 87.752 8.9919 87.032 8.9919C86.76 8.9919 86.48 9.0279 86.192 9.0999C85.904 9.1719 85.628 9.2719 85.364 9.3999C85.1 9.5279 84.86 9.6679 84.644 9.8199C84.428 9.9719 84.264 10.1359 84.152 10.3119H83.984L83.672 8.8719Z" fill="black"/>
</svg>
