<svg width="118" height="24" viewBox="0 0 118 24" fill="none" xmlns="http://www.w3.org/2000/svg">
<g clip-path="url(#clip0_0_3317)">
<path fill-rule="evenodd" clip-rule="evenodd" d="M51.43 16.19C51.43 17.21 51.5 18.07 51.64 18.77C51.78 19.47 51.97 20.035 52.21 20.465C52.45 20.895 52.725 21.205 53.035 21.395C53.345 21.585 53.67 21.68 54.01 21.68C54.83 21.68 55.505 21.215 56.035 20.285C56.565 19.355 56.83 17.81 56.83 15.65C56.83 13.79 56.58 12.435 56.08 11.585C55.58 10.735 54.94 10.31 54.16 10.31C53.84 10.31 53.52 10.4 53.2 10.58C52.88 10.76 52.59 11.075 52.33 11.525C52.07 11.975 51.855 12.58 51.685 13.34C51.515 14.1 51.43 15.05 51.43 16.19ZM60.85 12.77C60.85 14.73 60.87 16.53 60.91 18.17C60.95 19.81 61.01 21.44 61.09 23.06C60.83 23.02 60.5 23 60.1 23H57.685C57.315 23 57.03 23.02 56.83 23.06C56.85 23.02 56.87 22.89 56.89 22.67C56.91 22.45 56.935 22.2 56.965 21.92C56.995 21.64 57.02 21.38 57.04 21.14C57.06 20.9 57.07 20.75 57.07 20.69L57.01 20.63C56.63 21.53 56.11 22.225 55.45 22.715C54.79 23.205 53.88 23.45 52.72 23.45C51.7 23.45 50.83 23.255 50.11 22.865C49.39 22.475 48.8 21.93 48.34 21.23C47.88 20.53 47.54 19.71 47.32 18.77C47.1 17.83 46.99 16.82 46.99 15.74C46.99 14.66 47.14 13.665 47.44 12.755C47.74 11.845 48.15 11.055 48.67 10.385C49.19 9.715 49.805 9.19 50.515 8.81C51.225 8.43 51.98 8.24 52.78 8.24C53.68 8.24 54.485 8.45 55.195 8.87C55.905 9.29 56.43 9.82 56.77 10.46H56.83C56.83 8.65999 56.81 6.96501 56.77 5.375C56.73 3.78499 56.67 2.14001 56.59 0.440002C56.85 0.480003 57.18 0.515002 57.58 0.545002C57.98 0.575003 58.4 0.590002 58.84 0.590002C59.28 0.590002 59.7 0.575003 60.1 0.545002C60.5 0.515002 60.83 0.480003 61.09 0.440002C61.01 2.12001 60.95 3.77999 60.91 5.42C60.87 7.06001 60.85 8.85999 60.85 10.82V12.77ZM68.21 15.89C68.21 16.69 68.29 17.44 68.45 18.14C68.61 18.84 68.855 19.445 69.185 19.955C69.515 20.465 69.935 20.865 70.445 21.155C70.955 21.445 71.55 21.59 72.23 21.59C73.61 21.59 74.84 21.14 75.92 20.24L76.28 20.51L75.62 22.19C75.12 22.57 74.52 22.875 73.82 23.105C73.12 23.335 72.2 23.45 71.06 23.45C70.08 23.45 69.15 23.315 68.27 23.045C67.39 22.775 66.615 22.33 65.945 21.71C65.275 21.09 64.745 20.305 64.355 19.355C63.965 18.405 63.77 17.27 63.77 15.95C63.77 14.65 63.945 13.52 64.295 12.56C64.645 11.6 65.13 10.8 65.75 10.16C66.37 9.52 67.105 9.04 67.955 8.72C68.805 8.4 69.73 8.24 70.73 8.24C72.71 8.24 74.225 8.82 75.275 9.98C76.325 11.14 76.85 12.78 76.85 14.9V15.53C76.85 15.71 76.84 15.83 76.82 15.89H68.21ZM72.83 14.54C72.79 13.04 72.605 11.84 72.275 10.94C71.945 10.04 71.39 9.59 70.61 9.59C70.17 9.59 69.8 9.74 69.5 10.04C69.2 10.34 68.96 10.725 68.78 11.195C68.6 11.665 68.465 12.195 68.375 12.785C68.285 13.375 68.23 13.96 68.21 14.54H72.83ZM83.64 10.88C84.2 10.04 84.855 9.39 85.605 8.93C86.355 8.47 87.21 8.24 88.17 8.24C89.07 8.24 89.845 8.485 90.495 8.975C91.145 9.46501 91.65 10.17 92.01 11.09C92.61 10.17 93.31 9.46501 94.11 8.975C94.91 8.485 95.76 8.24 96.66 8.24C98.16 8.24 99.315 8.675 100.125 9.545C100.935 10.415 101.34 11.82 101.34 13.76C101.34 14.78 101.32 15.68 101.28 16.46C101.24 17.24 101.22 18.02 101.22 18.8C101.22 19.44 101.235 20.135 101.265 20.885C101.295 21.635 101.33 22.36 101.37 23.06C101.11 23.02 100.78 23 100.38 23H97.86C97.46 23 97.13 23.02 96.87 23.06C97.01 22.02 97.1 20.795 97.14 19.385C97.18 17.975 97.2 16.36 97.2 14.54C97.2 13.28 96.99 12.355 96.57 11.765C96.15 11.175 95.56 10.88 94.8 10.88C94.32 10.88 93.925 10.99 93.615 11.21C93.305 11.43 93.06 11.715 92.88 12.065C92.7 12.415 92.58 12.79 92.52 13.19C92.46 13.59 92.43 13.97 92.43 14.33V16.49C92.43 17.71 92.445 18.86 92.475 19.94C92.505 21.02 92.57 22.06 92.67 23.06C92.41 23.02 92.085 23 91.695 23H89.16C88.78 23 88.45 23.02 88.17 23.06C88.27 22.06 88.335 21.02 88.365 19.94C88.395 18.86 88.41 17.71 88.41 16.49V14.66C88.41 13.46 88.26 12.53 87.96 11.87C87.66 11.21 87.09 10.88 86.25 10.88C85.35 10.88 84.69 11.27 84.27 12.05C83.85 12.83 83.64 13.91 83.64 15.29V16.49C83.64 17.71 83.655 18.86 83.685 19.94C83.715 21.02 83.78 22.06 83.88 23.06C83.62 23.02 83.295 23 82.905 23H80.37C79.99 23 79.66 23.02 79.38 23.06C79.48 22.06 79.545 21.02 79.575 19.94C79.605 18.86 79.62 17.71 79.62 16.49V15.29C79.62 14.07 79.605 12.925 79.575 11.855C79.545 10.785 79.48 9.71001 79.38 8.63C79.74 8.67 80.095 8.705 80.445 8.735C80.795 8.765 81.15 8.78 81.51 8.78C81.87 8.78 82.225 8.765 82.575 8.735C82.925 8.705 83.3 8.67 83.7 8.63L83.58 10.88H83.64ZM111.82 18.5C111.82 17.64 111.825 16.985 111.835 16.535C111.845 16.085 111.85 15.69 111.85 15.35C111.43 15.59 110.985 15.785 110.515 15.935C110.045 16.085 109.615 16.275 109.225 16.505C108.835 16.735 108.515 17.05 108.265 17.45C108.015 17.85 107.89 18.43 107.89 19.19C107.89 19.93 108.045 20.495 108.355 20.885C108.665 21.275 109.08 21.47 109.6 21.47C110.26 21.47 110.795 21.22 111.205 20.72C111.615 20.22 111.82 19.48 111.82 18.5ZM104.71 10.34C105.55 9.66 106.455 9.14 107.425 8.78C108.395 8.42 109.36 8.24 110.32 8.24C111.12 8.24 111.855 8.33 112.525 8.51C113.195 8.69 113.775 8.975 114.265 9.365C114.755 9.755 115.135 10.26 115.405 10.88C115.675 11.5 115.81 12.25 115.81 13.13C115.81 14.41 115.795 15.595 115.765 16.685C115.735 17.775 115.72 18.86 115.72 19.94C115.72 20.42 115.755 20.795 115.825 21.065C115.895 21.335 116 21.54 116.14 21.68C116.28 21.82 116.465 21.91 116.695 21.95C116.925 21.99 117.19 22.01 117.49 22.01V22.73C116.91 22.97 116.42 23.15 116.02 23.27C115.62 23.39 115.19 23.45 114.73 23.45C113.99 23.45 113.39 23.27 112.93 22.91C112.47 22.55 112.12 22.03 111.88 21.35C111.42 21.99 110.885 22.5 110.275 22.88C109.665 23.26 108.9 23.45 107.98 23.45C107.22 23.45 106.57 23.35 106.03 23.15C105.49 22.95 105.045 22.665 104.695 22.295C104.345 21.925 104.09 21.505 103.93 21.035C103.77 20.565 103.69 20.09 103.69 19.61C103.69 18.95 103.795 18.38 104.005 17.9C104.215 17.42 104.515 17.01 104.905 16.67C105.295 16.33 105.76 16.045 106.3 15.815C106.84 15.585 107.45 15.39 108.13 15.23C108.97 15.03 109.635 14.855 110.125 14.705C110.615 14.555 110.98 14.405 111.22 14.255C111.46 14.105 111.615 13.94 111.685 13.76C111.755 13.58 111.79 13.36 111.79 13.1C111.79 12.38 111.535 11.765 111.025 11.255C110.515 10.745 109.81 10.49 108.91 10.49C108.57 10.49 108.22 10.535 107.86 10.625C107.5 10.715 107.155 10.84 106.825 11C106.495 11.16 106.195 11.335 105.925 11.525C105.655 11.715 105.45 11.92 105.31 12.14H105.1L104.71 10.34Z" fill="black"/>
<path fill-rule="evenodd" clip-rule="evenodd" d="M5.10999 6.86V18.83C5.10999 19.41 5.11499 19.94 5.12499 20.42C5.13499 20.9 5.13999 21.21 5.13999 21.35C5.43999 21.37 5.79999 21.39 6.21999 21.41C6.63999 21.43 7.15999 21.44 7.77999 21.44C10.04 21.44 11.83 20.67 13.15 19.13C14.47 17.59 15.13 15.26 15.13 12.14C15.13 10.9 14.965 9.79 14.635 8.81C14.305 7.82999 13.84 6.995 13.24 6.305C12.64 5.61499 11.92 5.085 11.08 4.715C10.24 4.34499 9.3 4.16 8.25999 4.16C7.53999 4.16 6.95499 4.175 6.50499 4.205C6.05499 4.235 5.59999 4.27 5.13999 4.31C5.13999 4.45 5.13499 4.75999 5.12499 5.24C5.11499 5.72 5.10999 6.25999 5.10999 6.86ZM0.669993 10.76C0.669993 9.09999 0.649993 7.625 0.609993 6.335C0.569992 5.04499 0.509993 3.75 0.429993 2.45C0.769994 2.49 1.13999 2.525 1.53999 2.555C1.93999 2.585 2.38999 2.6 2.88999 2.6C3.55 2.6 4.28999 2.575 5.10999 2.525C5.93 2.475 6.99999 2.45 8.31999 2.45C10.04 2.45 11.605 2.60499 13.015 2.915C14.425 3.225 15.64 3.74999 16.66 4.49C17.68 5.23 18.47 6.22499 19.03 7.475C19.59 8.725 19.87 10.3 19.87 12.2C19.87 13.86 19.595 15.36 19.045 16.7C18.495 18.04 17.745 19.185 16.795 20.135C15.845 21.085 14.745 21.81 13.495 22.31C12.245 22.81 10.91 23.06 9.48999 23.06C7.98999 23.06 6.71 23.05 5.64999 23.03C4.58999 23.01 3.67 23 2.88999 23H1.53999C1.13999 23 0.769994 23.02 0.429993 23.06C0.509993 21.82 0.569992 20.555 0.609993 19.265C0.649993 17.975 0.669993 16.5 0.669993 14.84V10.76ZM23.24 2.96C23.24 2.29999 23.47 1.74 23.93 1.28C24.39 0.819994 24.95 0.589996 25.61 0.589996C26.27 0.589996 26.83 0.819994 27.29 1.28C27.75 1.74 27.98 2.29999 27.98 2.96C27.98 3.62 27.75 4.17999 27.29 4.64C26.83 5.1 26.27 5.33 25.61 5.33C24.95 5.33 24.39 5.1 23.93 4.64C23.47 4.17999 23.24 3.62 23.24 2.96ZM23.6 15.29C23.6 14.07 23.585 12.925 23.555 11.855C23.525 10.785 23.46 9.71 23.36 8.63C23.64 8.67 23.97 8.705 24.35 8.735C24.73 8.765 25.15 8.78 25.61 8.78C26.55 8.78 27.3 8.73 27.86 8.63C27.76 9.71 27.695 10.785 27.665 11.855C27.635 12.925 27.62 14.07 27.62 15.29V16.49C27.62 17.71 27.635 18.86 27.665 19.94C27.695 21.02 27.76 22.06 27.86 23.06C27.6 23.02 27.275 23 26.885 23H24.35C23.97 23 23.64 23.02 23.36 23.06C23.46 22.06 23.525 21.02 23.555 19.94C23.585 18.86 23.6 17.71 23.6 16.49V15.29ZM38.73 18.5C38.73 17.64 38.735 16.985 38.745 16.535C38.755 16.085 38.76 15.69 38.76 15.35C38.34 15.59 37.895 15.785 37.425 15.935C36.955 16.085 36.525 16.275 36.135 16.505C35.745 16.735 35.425 17.05 35.175 17.45C34.925 17.85 34.8 18.43 34.8 19.19C34.8 19.93 34.955 20.495 35.265 20.885C35.575 21.275 35.99 21.47 36.51 21.47C37.17 21.47 37.705 21.22 38.115 20.72C38.525 20.22 38.73 19.48 38.73 18.5ZM31.62 10.34C32.46 9.65999 33.365 9.14 34.335 8.78C35.305 8.41999 36.27 8.24 37.23 8.24C38.03 8.24 38.765 8.33 39.435 8.51C40.105 8.69 40.685 8.97499 41.175 9.365C41.665 9.755 42.045 10.26 42.315 10.88C42.585 11.5 42.72 12.25 42.72 13.13C42.72 14.41 42.705 15.595 42.675 16.685C42.645 17.775 42.63 18.86 42.63 19.94C42.63 20.42 42.665 20.795 42.735 21.065C42.805 21.335 42.91 21.54 43.05 21.68C43.19 21.82 43.375 21.91 43.605 21.95C43.835 21.99 44.1 22.01 44.4 22.01V22.73C43.82 22.97 43.33 23.15 42.93 23.27C42.53 23.39 42.1 23.45 41.64 23.45C40.9 23.45 40.3 23.27 39.84 22.91C39.38 22.55 39.03 22.03 38.79 21.35C38.33 21.99 37.795 22.5 37.185 22.88C36.575 23.26 35.81 23.45 34.89 23.45C34.13 23.45 33.48 23.35 32.94 23.15C32.4 22.95 31.955 22.665 31.605 22.295C31.255 21.925 31 21.505 30.84 21.035C30.68 20.565 30.6 20.09 30.6 19.61C30.6 18.95 30.705 18.38 30.915 17.9C31.125 17.42 31.425 17.01 31.815 16.67C32.205 16.33 32.67 16.045 33.21 15.815C33.75 15.585 34.36 15.39 35.04 15.23C35.88 15.03 36.545 14.855 37.035 14.705C37.525 14.555 37.89 14.405 38.13 14.255C38.37 14.105 38.525 13.94 38.595 13.76C38.665 13.58 38.7 13.36 38.7 13.1C38.7 12.38 38.445 11.765 37.935 11.255C37.425 10.745 36.72 10.49 35.82 10.49C35.48 10.49 35.13 10.535 34.77 10.625C34.41 10.715 34.065 10.84 33.735 11C33.405 11.16 33.105 11.335 32.835 11.525C32.565 11.715 32.36 11.92 32.22 12.14H32.01L31.62 10.34Z" fill="white"/>
</g>
<defs>
<clipPath id="clip0_0_3317">
<rect width="118" height="24" fill="white"/>
</clipPath>
</defs>
</svg>
