<svg width="20" height="20" viewBox="0 0 20 20" fill="none" xmlns="http://www.w3.org/2000/svg">
<g clip-path="url(#clip0_15_29)">
<path d="M9.99994 0C5.2673 0.000843492 1.18329 3.3192 0.213797 7.95148C-0.755694 12.5838 1.65484 17.2614 5.98994 19.16C5.94408 18.3892 6.00125 17.6157 6.15994 16.86C6.34994 16.05 7.44994 11.41 7.44994 11.41C7.231 10.9124 7.12185 10.3735 7.12994 9.83C7.12994 8.35 7.98994 7.24 9.05994 7.24C9.44541 7.2356 9.81396 7.39803 10.0708 7.68552C10.3276 7.973 10.4476 8.35747 10.3999 8.74C10.2095 9.94648 9.91504 11.1342 9.51994 12.29C9.39914 12.7669 9.51171 13.2727 9.82332 13.6534C10.1349 14.034 10.6086 14.2443 11.0999 14.22C12.9899 14.22 14.2699 11.79 14.2699 8.9C14.2699 6.71 12.7899 5.07 10.1099 5.07C8.81272 5.01889 7.55143 5.50276 6.62124 6.40837C5.69104 7.31399 5.17358 8.56187 5.18994 9.86C5.16035 10.5724 5.39545 11.2706 5.84994 11.82C6.01299 11.9566 6.06952 12.1827 5.98994 12.38C5.93994 12.56 5.82994 13 5.78994 13.18C5.77081 13.2885 5.70142 13.3816 5.60286 13.4308C5.50431 13.4801 5.38824 13.4798 5.28994 13.43C3.88994 12.86 3.23994 11.33 3.23994 9.61C3.23994 6.77 5.63995 3.36 10.3799 3.36C14.1999 3.36 16.7099 6.13 16.7099 9.09C16.7099 13.01 14.5299 15.94 11.3199 15.94C10.3485 15.9692 9.42898 15.502 8.87994 14.7C8.87994 14.7 8.29994 17 8.16994 17.45C7.94076 18.2075 7.60399 18.9282 7.16994 19.59C8.08932 19.859 9.04203 19.997 9.99994 20C15.5228 20 19.9999 15.5228 19.9999 10C19.9999 4.47715 15.5228 0 9.99994 0Z" fill="#8D8D8D"/>
</g>
<defs>
<clipPath id="clip0_15_29">
<rect width="20" height="20" fill="white"/>
</clipPath>
</defs>
</svg>
