<svg width="18" height="18" viewBox="0 0 18 18" fill="none" xmlns="http://www.w3.org/2000/svg">
<g clip-path="url(#clip0_0_3313)">
<path fill-rule="evenodd" clip-rule="evenodd" d="M17.135 17.8553L17.8553 17.135C18.0482 16.9336 18.0482 16.616 17.8553 16.4147L13.6349 12.2045C14.6581 10.8908 15.2149 9.27391 15.2176 7.60878C15.2176 3.40656 11.811 0 7.60878 0C3.40656 0 0 3.40656 0 7.60878C0 11.811 3.40656 15.2176 7.60878 15.2176C9.27391 15.2149 10.8908 14.6581 12.2045 13.6349L16.4147 17.8553C16.616 18.0482 16.9336 18.0482 17.135 17.8553ZM2.02901 7.60878C2.02901 4.52715 4.52715 2.02901 7.60878 2.02901C10.6904 2.02901 13.1885 4.52715 13.1885 7.60878C13.1885 10.6904 10.6904 13.1885 7.60878 13.1885C4.52715 13.1885 2.02901 10.6904 2.02901 7.60878Z" fill="#838383"/>
</g>
<defs>
<clipPath id="clip0_0_3313">
<rect width="18" height="18" fill="white"/>
</clipPath>
</defs>
</svg>
