<svg width="21" height="17" viewBox="0 0 21 17" fill="none" xmlns="http://www.w3.org/2000/svg">
<g clip-path="url(#clip0_15_33)">
<path d="M17.962 3.9901C17.971 4.1601 17.975 4.3401 17.975 4.5201C17.9727 7.59927 16.7357 10.5489 14.5409 12.7086C12.3461 14.8682 9.37684 16.0575 6.29803 16.0101C4.07292 16.0122 1.89263 15.3847 0.0090332 14.2001C0.328033 14.2301 0.656033 14.2501 0.987033 14.2501C2.83152 14.253 4.62497 13.6446 6.08703 12.5201C4.34068 12.4959 2.80138 11.368 2.25203 9.7101C2.50579 9.762 2.76403 9.7888 3.02303 9.7901C3.38819 9.78974 3.75181 9.74269 4.10503 9.6501C2.20451 9.28253 0.826816 7.62579 0.812033 5.6901C0.8102 5.67349 0.8102 5.65672 0.812033 5.6401C1.38371 5.94985 2.02011 6.12111 2.67003 6.1401C1.53331 5.40029 0.847182 4.13637 0.846033 2.7801C0.844399 2.06588 1.03581 1.36448 1.40003 0.750102C3.50283 3.28008 6.57111 4.81114 9.85703 4.9701C9.78969 4.66809 9.75616 4.35953 9.75703 4.0501C9.77519 1.80298 11.6099 -0.00486802 13.857 0.0101021C14.9865 0.00718949 16.0681 0.465988 16.851 1.2801C17.7704 1.10632 18.6527 0.774763 19.459 0.300102C19.1518 1.24101 18.5117 2.03748 17.659 2.5401C18.4713 2.44225 19.2649 2.22665 20.015 1.9001C19.4611 2.71389 18.7658 3.42176 17.962 3.9901Z" fill="#8D8D8D"/>
</g>
<defs>
<clipPath id="clip0_15_33">
<rect width="21" height="17" fill="white"/>
</clipPath>
</defs>
</svg>
